<?xml version="1.0" encoding="UTF-8"?>
<!--
  Copyright 2026 Anton Zakharov
  Licensed under the Apache License, Version 2.0 (the "License");
  you may not use this file except in compliance with the License.
  You may obtain a copy of the License at http://www.apache.org/licenses/LICENSE-2.0
-->
<svg xmlns="http://www.w3.org/2000/svg" viewBox="0 0 600 765" width="600" height="765" role="img" aria-label="Циклы перестановки на круге">
  <title>Циклы перестановки: (1 12 11 7 4 3 E 5 13 9 10)(2 14 6 8 15)</title>
  <style>
    .bg { fill: #ffffff; }
    text { font-family: system-ui, -apple-system, "Segoe UI", Roboto, sans-serif; text-anchor: middle; dominant-baseline: central; font-size: 17px; font-weight: 700; fill: #111; }
    text.e { fill: #23211d; }
    text.ix { font-size: 14px; font-weight: 600; fill: #7b766b; }
    text.lg { text-anchor: start; font-size: 18px; font-weight: 600; fill: #23211d; }
    .note { text-anchor: start; font-size: 15px; font-weight: 400; fill: #7b766b; }
    .ring { fill: none; stroke: #d9d4c7; stroke-width: 1; stroke-dasharray: 3 5; }
    path { fill: none; stroke-width: 3; stroke-linecap: round; opacity: .9; }
    polygon { stroke: #ffffff; stroke-width: 1; stroke-linejoin: round; }
    @media (prefers-color-scheme: dark) {
      .bg { fill: #212529; }
      text.e, text.lg { fill: #ecebe6; }
      text.ix, .note { fill: #9a978e; }
      .ring { stroke: #343a40; }
      polygon { stroke: #212529; }
    }
  </style>
  <rect class="bg" width="100%" height="100%" rx="18"/>
  <circle class="ring" cx="300" cy="300" r="235"/>
  <path d="M288.3 82.5 L94.6 372.5" stroke="#e4572e"/>
  <path d="M94.6 407.4 L122.2 448.7" stroke="#e4572e"/>
  <path d="M154.8 466.2 L445.2 466.2" stroke="#e4572e"/>
  <path d="M470.3 445.6 L513 230.7" stroke="#e4572e"/>
  <path d="M505.4 192.6 L477.8 151.3" stroke="#e4572e"/>
  <path d="M445.6 129.7 L230.7 87" stroke="#e4572e"/>
  <path d="M227.5 94.6 L517.5 288.3" stroke="#e4572e"/>
  <path d="M514 300 L86 300" stroke="#e4572e"/>
  <path d="M79.8 314.8 L285.2 520.2" stroke="#e4572e"/>
  <path d="M279.4 530.9 L230.7 521.2" stroke="#e4572e"/>
  <path d="M214.2 496.5 L295.9 85.6" stroke="#e4572e"/>
  <path d="M370.5 90.9 L102.3 202" stroke="#17bebb"/>
  <path d="M102.3 218.1 L497.7 381.9" stroke="#17bebb"/>
  <path d="M502.3 404.8 L404.8 502.3" stroke="#17bebb"/>
  <path d="M378.3 499.7 L145.5 151.3" stroke="#17bebb"/>
  <path d="M154.4 129.7 L369.3 87" stroke="#17bebb"/>
  <polygon points="9,0 -6,-7 -6,7" fill="#e4572e" transform="translate(181.8 242) rotate(123.7)"/>
  <polygon points="9,0 -6,-7 -6,7" fill="#e4572e" transform="translate(109.7 430.1) rotate(56.3)"/>
  <polygon points="9,0 -6,-7 -6,7" fill="#e4572e" transform="translate(314.5 466.2) rotate(0)"/>
  <polygon points="9,0 -6,-7 -6,7" fill="#e4572e" transform="translate(493.8 327.4) rotate(-78.8)"/>
  <polygon points="9,0 -6,-7 -6,7" fill="#e4572e" transform="translate(490.3 169.9) rotate(-123.8)"/>
  <polygon points="9,0 -6,-7 -6,7" fill="#e4572e" transform="translate(327.4 106.2) rotate(-168.7)"/>
  <polygon points="9,0 -6,-7 -6,7" fill="#e4572e" transform="translate(387 201.1) rotate(33.8)"/>
  <polygon points="9,0 -6,-7 -6,7" fill="#e4572e" transform="translate(278.6 300) rotate(180)"/>
  <polygon points="9,0 -6,-7 -6,7" fill="#e4572e" transform="translate(192.8 427.8) rotate(45)"/>
  <polygon points="9,0 -6,-7 -6,7" fill="#e4572e" transform="translate(252.6 525.6) rotate(-168.8)"/>
  <polygon points="9,0 -6,-7 -6,7" fill="#e4572e" transform="translate(259.1 270.5) rotate(-78.8)"/>
  <polygon points="9,0 -6,-7 -6,7" fill="#17bebb" transform="translate(223 152) rotate(157.5)"/>
  <polygon points="9,0 -6,-7 -6,7" fill="#17bebb" transform="translate(319.8 308.2) rotate(22.5)"/>
  <polygon points="9,0 -6,-7 -6,7" fill="#17bebb" transform="translate(448.6 458.4) rotate(135)"/>
  <polygon points="9,0 -6,-7 -6,7" fill="#17bebb" transform="translate(250.2 308.1) rotate(-123.8)"/>
  <polygon points="9,0 -6,-7 -6,7" fill="#17bebb" transform="translate(272.6 106.2) rotate(-11.2)"/>
  <g><circle cx="300" cy="65" r="21" fill="#e4572e"/><text x="300" y="65">12</text></g>
  <g><circle cx="389.9" cy="82.9" r="21" fill="#17bebb"/><text x="389.9" y="82.9">14</text></g>
  <g><rect x="448.2" y="115.8" width="36" height="36" rx="3" fill="none" stroke="#e4572e" stroke-width="3"/><text x="466.2" y="133.8" class="e">E</text></g>
  <g><circle cx="517.1" cy="210.1" r="21" fill="#e4572e"/><text x="517.1" y="210.1">3</text></g>
  <g><circle cx="535" cy="300" r="21" fill="#e4572e"/><text x="535" y="300">13</text></g>
  <g><circle cx="517.1" cy="389.9" r="21" fill="#17bebb"/><text x="517.1" y="389.9">8</text></g>
  <g><circle cx="466.2" cy="466.2" r="21" fill="#e4572e"/><text x="466.2" y="466.2">4</text></g>
  <g><circle cx="389.9" cy="517.1" r="21" fill="#17bebb"/><text x="389.9" y="517.1">15</text></g>
  <g><circle cx="300" cy="535" r="21" fill="#e4572e"/><text x="300" y="535">10</text></g>
  <g><circle cx="210.1" cy="517.1" r="21" fill="#e4572e"/><text x="210.1" y="517.1">1</text></g>
  <g><circle cx="133.8" cy="466.2" r="21" fill="#e4572e"/><text x="133.8" y="466.2">7</text></g>
  <g><circle cx="82.9" cy="389.9" r="21" fill="#e4572e"/><text x="82.9" y="389.9">11</text></g>
  <g><circle cx="65" cy="300" r="21" fill="#e4572e"/><text x="65" y="300">9</text></g>
  <g><circle cx="82.9" cy="210.1" r="21" fill="#17bebb"/><text x="82.9" y="210.1">6</text></g>
  <g><circle cx="133.8" cy="133.8" r="21" fill="#17bebb"/><text x="133.8" y="133.8">2</text></g>
  <g><circle cx="210.1" cy="82.9" r="21" fill="#e4572e"/><text x="210.1" y="82.9">5</text></g>
  <text x="300" y="26" class="ix">1</text>
  <text x="404.9" y="46.9" class="ix">2</text>
  <text x="493.7" y="106.3" class="ix">3</text>
  <text x="553.1" y="195.1" class="ix">4</text>
  <text x="574" y="300" class="ix">5</text>
  <text x="553.1" y="404.9" class="ix">6</text>
  <text x="493.7" y="493.7" class="ix">7</text>
  <text x="404.9" y="553.1" class="ix">8</text>
  <text x="300" y="574" class="ix">9</text>
  <text x="195.1" y="553.1" class="ix">10</text>
  <text x="106.3" y="493.7" class="ix">11</text>
  <text x="46.9" y="404.9" class="ix">12</text>
  <text x="26" y="300" class="ix">13</text>
  <text x="46.9" y="195.1" class="ix">14</text>
  <text x="106.3" y="106.3" class="ix">15</text>
  <text x="195.1" y="46.9" class="ix">16</text>
  <g transform="translate(70 640)"><rect width="20" height="20" rx="4" y="-14" fill="#e4572e"/><text x="32" y="1" class="lg">(1 12 11 7 4 3 E 5 13 9 10)</text></g>
  <g transform="translate(70 670)"><rect width="20" height="20" rx="4" y="-14" fill="#17bebb"/><text x="32" y="1" class="lg">(2 14 6 8 15)</text></g>
  <text class="note" x="70" y="698">Серые числа снаружи — номера позиций (1 — на 12 часов).</text>
  <text class="note" x="70" y="718">В кружках — значения.</text>
  <text class="note" x="70" y="738">Стрелка идёт от позиции к позиции, равной значению в кружке.</text>
</svg>
