<?xml version="1.0" encoding="UTF-8"?>
<!--
  Copyright 2026 Anton Zakharov
  Licensed under the Apache License, Version 2.0 (the "License");
  you may not use this file except in compliance with the License.
  You may obtain a copy of the License at http://www.apache.org/licenses/LICENSE-2.0
-->
<svg xmlns="http://www.w3.org/2000/svg" viewBox="0 0 600 790" width="600" height="790" role="img" aria-label="Циклы перестановки на круге">
  <title>Циклы перестановки: (1 3 5 10 8 6)(2 14 15)(4 12)(7 13 11)</title>
  <style>
    .bg { fill: #ffffff; }
    text { font-family: system-ui, -apple-system, "Segoe UI", Roboto, sans-serif; text-anchor: middle; dominant-baseline: central; font-size: 17px; font-weight: 700; fill: #111; }
    text.e { fill: #23211d; }
    text.lg { text-anchor: start; font-size: 18px; font-weight: 600; fill: #23211d; }
    .note { text-anchor: start; font-size: 15px; font-weight: 400; fill: #7b766b; }
    .ring { fill: none; stroke: #d9d4c7; stroke-width: 1; stroke-dasharray: 3 5; }
    path { fill: none; stroke-width: 3; stroke-linecap: round; opacity: .9; }
    polygon { stroke: #ffffff; stroke-width: 1; stroke-linejoin: round; }
    @media (prefers-color-scheme: dark) {
      .bg { fill: #212529; }
      text.e, text.lg { fill: #ecebe6; }
      .note { fill: #9a978e; }
      .ring { stroke: #343a40; }
      polygon { stroke: #212529; }
    }
  </style>
  <rect class="bg" width="100%" height="100%" rx="18"/>
  <circle class="ring" cx="300" cy="300" r="235"/>
  <path d="M497.7 398 Q363.6 453.5 229.5 509.1" stroke="#e4572e"/>
  <path d="M214.2 496.5 Q255 291.1 295.9 85.6" stroke="#e4572e"/>
  <path d="M314.8 79.8 Q417.5 182.5 520.2 285.2" stroke="#e4572e"/>
  <path d="M527 280.6 Q500.6 216.9 474.2 153.2" stroke="#e4572e"/>
  <path d="M462.1 154.4 Q428.1 325.5 394 496.5" stroke="#e4572e"/>
  <path d="M404.8 502.3 Q453.5 453.5 502.3 404.8" stroke="#e4572e"/>
  <path d="M94.6 192.6 Q108.4 171.9 122.2 151.3" stroke="#17bebb"/>
  <path d="M154.4 129.7 Q261.9 108.4 369.3 87" stroke="#17bebb"/>
  <path d="M370.5 90.9 Q236.4 146.5 102.3 202" stroke="#17bebb"/>
  <path d="M103.1 384.1 Q309.9 324 498.7 220.2" stroke="#76b041"/>
  <path d="M496.9 215.9 Q290.1 276 101.3 379.8" stroke="#76b041"/>
  <path d="M154.8 466.2 Q300 466.2 445.2 466.2" stroke="#3d8bfd"/>
  <path d="M446.8 458.1 Q265.6 383.1 84.4 308" stroke="#3d8bfd"/>
  <path d="M73 319.4 Q99.4 383.1 125.8 446.8" stroke="#3d8bfd"/>
  <polygon points="9,0 -6,-7 -6,7" fill="#e4572e" transform="translate(350.2 459.1) rotate(157.5)"/>
  <polygon points="9,0 -6,-7 -6,7" fill="#e4572e" transform="translate(259.1 270.5) rotate(-78.8)"/>
  <polygon points="9,0 -6,-7 -6,7" fill="#e4572e" transform="translate(427.8 192.8) rotate(45)"/>
  <polygon points="9,0 -6,-7 -6,7" fill="#e4572e" transform="translate(497.9 210.5) rotate(-112.5)"/>
  <polygon points="9,0 -6,-7 -6,7" fill="#e4572e" transform="translate(424.6 342.6) rotate(101.2)"/>
  <polygon points="9,0 -6,-7 -6,7" fill="#e4572e" transform="translate(458.4 448.6) rotate(-45)"/>
  <polygon points="9,0 -6,-7 -6,7" fill="#17bebb" transform="translate(109.7 169.9) rotate(-56.3)"/>
  <polygon points="9,0 -6,-7 -6,7" fill="#17bebb" transform="translate(272.6 106.2) rotate(-11.2)"/>
  <polygon points="9,0 -6,-7 -6,7" fill="#17bebb" transform="translate(223 152) rotate(157.5)"/>
  <polygon points="9,0 -6,-7 -6,7" fill="#76b041" transform="translate(325.2 304.8) rotate(-23.1)"/>
  <polygon points="9,0 -6,-7 -6,7" fill="#76b041" transform="translate(274.8 295.2) rotate(156.9)"/>
  <polygon points="9,0 -6,-7 -6,7" fill="#3d8bfd" transform="translate(314.5 466.2) rotate(0)"/>
  <polygon points="9,0 -6,-7 -6,7" fill="#3d8bfd" transform="translate(247.5 375.6) rotate(-157.5)"/>
  <polygon points="9,0 -6,-7 -6,7" fill="#3d8bfd" transform="translate(102.1 389.5) rotate(67.5)"/>
  <g><circle cx="517.1" cy="389.9" r="21" fill="#e4572e"/><text x="517.1" y="389.9">1</text></g>
  <g><circle cx="82.9" cy="210.1" r="21" fill="#17bebb"/><text x="82.9" y="210.1">2</text></g>
  <g><circle cx="210.1" cy="517.1" r="21" fill="#e4572e"/><text x="210.1" y="517.1">3</text></g>
  <g><circle cx="82.9" cy="389.9" r="21" fill="#76b041"/><text x="82.9" y="389.9">4</text></g>
  <g><circle cx="300" cy="65" r="21" fill="#e4572e"/><text x="300" y="65">5</text></g>
  <g><circle cx="389.9" cy="517.1" r="21" fill="#e4572e"/><text x="389.9" y="517.1">6</text></g>
  <g><circle cx="133.8" cy="466.2" r="21" fill="#3d8bfd"/><text x="133.8" y="466.2">7</text></g>
  <g><circle cx="466.2" cy="133.8" r="21" fill="#e4572e"/><text x="466.2" y="133.8">8</text></g>
  <g><circle cx="300" cy="535" r="21" fill="#9bd08a"/><text x="300" y="535">9</text></g>
  <g><circle cx="535" cy="300" r="21" fill="#e4572e"/><text x="535" y="300">10</text></g>
  <g><circle cx="65" cy="300" r="21" fill="#3d8bfd"/><text x="65" y="300">11</text></g>
  <g><circle cx="517.1" cy="210.1" r="21" fill="#76b041"/><text x="517.1" y="210.1">12</text></g>
  <g><circle cx="466.2" cy="466.2" r="21" fill="#3d8bfd"/><text x="466.2" y="466.2">13</text></g>
  <g><circle cx="133.8" cy="133.8" r="21" fill="#17bebb"/><text x="133.8" y="133.8">14</text></g>
  <g><circle cx="389.9" cy="82.9" r="21" fill="#17bebb"/><text x="389.9" y="82.9">15</text></g>
  <g><rect x="192.1" y="64.9" width="36" height="36" rx="3" fill="none" stroke="#9bd08a" stroke-width="3"/><text x="210.1" y="82.9" class="e">E</text></g>
  <g transform="translate(70 640)"><rect width="20" height="20" rx="4" y="-14" fill="#e4572e"/><text x="32" y="1" class="lg">(1 3 5 10 8 6)</text></g>
  <g transform="translate(70 670)"><rect width="20" height="20" rx="4" y="-14" fill="#17bebb"/><text x="32" y="1" class="lg">(2 14 15)</text></g>
  <g transform="translate(70 700)"><rect width="20" height="20" rx="4" y="-14" fill="#76b041"/><text x="32" y="1" class="lg">(4 12)</text></g>
  <g transform="translate(70 730)"><rect width="20" height="20" rx="4" y="-14" fill="#3d8bfd"/><text x="32" y="1" class="lg">(7 13 11)</text></g>
  <text class="note" x="70" y="768">на своих местах: 9, E</text>
</svg>
